<svg width="474" height="156" viewBox="0 0 474 156" fill="none" xmlns="http://www.w3.org/2000/svg"><path d="M354.305 118.074V94.9731c-11.319 3.9864-14.482.1659-14.482-6.3082V52.2962c3.828.1658 8.653 1.1847 12.814 2.3219V31.7012h-12.814V10.2827h-1.187c-7.989 7.8009-18.993 15.6077-29.451 21.5843 5.822 5.1472 4.155 34.876 4.155 60.9501 0 18.5989 10.814 27.2469 27.456 27.2469 4.572-.053 9.117-.722 13.509-1.99ZM59.9447 2.1619c-11.8113 0-23.1476 5.479-29.1186 14.6125.4986-6.8117 2.4929-10.792 4.3269-13.2857H.1348C9.1208 18.433 3.963 70.0836 3.963 118.245h31.9912c-3.662-8.47-5.1578-19.102-5.1578-32.3878 5.1578 2.6595 11.6451 4.4839 19.9664 4.4839 28.7921 0 46.4258-19.4283 46.4258-46.6633.0297-24.7473-14.7789-41.516-37.2439-41.516ZM46.2935 68.0874c-6.3211 0-11.1465-1.6585-15.4733-3.6487V48.9909c0-12.4388 7.1224-22.5853 19.9663-22.5853 12.844 0 18.803 9.1337 18.803 20.5951.0059 12.119-7.4785 21.0867-23.2901 21.0867h-.0059ZM304.271 99.6404V59.1195c0-17.6038-10.149-29.2252-28.121-29.2252-10.316 0-22.133 5.3309-27.623 16.4429.498-6.1483 1.994-10.7981 4.154-14.6186h-31.207c4.991 9.7971 3.828 50.3476 2.332 86.5264h28.377c-1.336-12.788-1.668-29.2309-1.668-44.8386 0-11.6274 5.995-19.4341 14.838-19.4341 7.319 0 12.809 4.1462 12.809 14.115 0 10.6618 0 34.0467-1.995 50.1577h31.119c-2.184-5.319-3.015-11.129-3.015-18.6046ZM129.423 0H97.8c8.488 11.4615 3.33 71.9081 3.33 118.246h33.926c-11.123-13.79-6.464-83.8675-5.633-118.246ZM439.968 98.9771c0 36.5349-19.467 56.1349-46.758 56.1349-11.817 0-22.797-3.157-31.285-9.134v-25.742c8.155 7.806 17.141 11.289 27.623 11.289 14.476 0 25.961-9.299 25.961-29.557-4.327 9.134-10.986 18.102-26.293 18.102-17.64 0-28.122-12.125-28.122-32.578 0-24.7473 2.161-50.152-3.163-55.8028h31.285c-2.499 16.4429-1.995 29.0653-1.995 44.1755 0 10.1287 3.49 17.1063 12.31 17.1063 10.82 0 14.648-9.4772 14.648-22.7512 0-14.4468.499-31.7189-4.326-38.5306h31.112c-1.828 24.2675-.997 53.8363-.997 67.2879ZM465.58 22.366c0-3.5538-2.766-5.0286-6.172-5.0286h-6.363v15.3583h3.81v-4.9871h2.677l2.499 4.9871h4.113l-3.377-6.1303a4.4694 4.4694 0 0 0 2.058-1.6646 4.4505 4.4505 0 0 0 .755-2.5348Zm-6.95 2.5706h-1.78v-4.62h1.875c1.911 0 2.73.9655 2.73 2.2567.006 1.3979-.997 2.3633-2.825 2.3633Z" fill="#FF391B"/><path d="M458.98 9.8152c-8.245 0-14.934 6.326-14.934 15.353 0 9.0271 6.689 15.3472 14.934 15.3472 8.244 0 14.885-6.3201 14.885-15.3472 0-9.027-6.695-15.353-14.885-15.353Zm0 27.3772c-6.476 0-11.277-4.8037-11.277-12.0242 0-7.2204 4.813-12.0774 11.277-12.0774 6.463 0 11.235 4.8985 11.235 12.0774 0 7.179-4.76 12.0242-11.235 12.0242ZM184.259 99.9841c-8.601 0-14.204-2.0494-16.073-6.3438 29.154-1.4867 47.66-14.5474 47.66-34.6923 0-17.7164-14.203-29.095-36.448-29.095-26.537 0-44.48 17.3492-44.48 44.7678 0 27.9752 18.317 45.6982 46.889 45.6982 15.135 0 27.356-4.318 34.947-10.07V85.5729c-6.499 9.0625-19.972 14.4112-32.495 14.4112Zm-24.276-28.3486c0-13.6235 7.853-22.2003 19.254-22.2003 7.289 0 11.96 3.9212 11.96 10.8218 0 9.3231-9.532 16.7864-30.092 18.4627a20.8626 20.8626 0 0 1-1.122-7.0842Z" fill="#FF391B"/></svg>